<svg xmlns="http://www.w3.org/2000/svg" width="268.057" height="258.453"><path fill="none" d="M-123.577 6.254h512v228.254h-512z"/><path d="M6.714 6.252h73.722l50.71 123.579h2.558l50.71-123.579h73.722v218.182H200.18V98.297h-1.704l-48.58 124.434h-34.942L66.373 97.445h-1.705v126.989H6.714V6.252z"/><path fill="none" d="M-3.972 234.508h273.239v19.014H-3.972z"/><path d="M7.294 249.49v-10.64h2.042v1.731h.134c.228-.586.6-1.045 1.117-1.375.517-.33 1.135-.495 1.856-.495.73 0 1.343.166 1.838.499.496.332.862.789 1.099 1.371h.114a3.096 3.096 0 011.249-1.361c.566-.339 1.243-.509 2.031-.509.991 0 1.8.304 2.429.911s.942 1.518.942 2.732v7.135h-2.126v-6.94c0-.721-.201-1.242-.601-1.565-.401-.323-.883-.485-1.448-.485-.692 0-1.23.208-1.614.623-.384.416-.576.944-.576 1.587v6.781h-2.12v-7.072c0-.577-.185-1.042-.555-1.393-.37-.351-.851-.526-1.444-.526-.602 0-1.126.227-1.572.679-.446.453-.668 1.037-.668 1.753v6.56H7.294zm18.771-12.281a1.35 1.35 0 01-.95-.364 1.142 1.142 0 01-.395-.869c0-.342.132-.634.395-.876s.58-.364.95-.364c.365 0 .68.122.946.364s.398.534.398.876c0 .337-.133.627-.398.869a1.356 1.356 0 01-.946.364zM24.99 249.49v-10.64h2.127v10.64H24.99zm7.114-6.317v6.317h-2.127v-10.64h2.042v1.731h.135c.251-.563.646-1.016 1.184-1.357s1.217-.513 2.038-.513c1.119 0 2.019.339 2.699 1.019.68.679 1.021 1.676 1.021 2.992v6.768H36.97v-6.519c0-.771-.207-1.375-.619-1.812-.413-.436-.979-.654-1.7-.654-.74 0-1.349.232-1.828.696s-.719 1.122-.719 1.972zm10.91-5.964a1.35 1.35 0 01-.95-.364 1.142 1.142 0 01-.395-.869c0-.342.132-.634.395-.876s.58-.364.95-.364c.365 0 .68.122.946.364s.398.534.398.876c0 .337-.133.627-.398.869a1.353 1.353 0 01-.946.364zM41.94 249.49v-10.64h2.127v10.64H41.94zm4.987 0v-10.64h2.042v1.731h.135c.228-.586.6-1.045 1.117-1.375.517-.33 1.135-.495 1.856-.495.73 0 1.343.166 1.838.499.496.332.862.789 1.099 1.371h.114a3.096 3.096 0 011.249-1.361c.566-.339 1.243-.509 2.031-.509.991 0 1.8.304 2.429.911s.942 1.518.942 2.732v7.135h-2.126v-6.94c0-.721-.201-1.242-.601-1.565-.401-.323-.883-.485-1.448-.485-.692 0-1.23.208-1.614.623-.384.416-.576.944-.576 1.587v6.781h-2.12v-7.072c0-.577-.185-1.042-.555-1.393-.37-.351-.851-.526-1.444-.526-.602 0-1.126.227-1.572.679-.446.453-.668 1.037-.668 1.753v6.56h-2.128zm20.876.236c-.692 0-1.317-.125-1.875-.374s-1-.615-1.327-1.098-.491-1.072-.491-1.77c0-.605.12-1.102.359-1.49.239-.388.56-.694.96-.921.401-.227.85-.396 1.348-.509s1.005-.2 1.522-.26c.654-.074 1.185-.136 1.59-.184.405-.049.702-.128.889-.239.188-.11.281-.291.281-.54v-.049c0-.604-.174-1.073-.522-1.406-.349-.332-.867-.499-1.554-.499-.716 0-1.279.153-1.689.458s-.693.646-.85 1.024l-1.999-.443c.355-.97.95-1.664 1.782-2.085a5.966 5.966 0 012.728-.63c.437 0 .899.05 1.387.148.488.1.95.282 1.383.548.434.266.787.641 1.06 1.125.272.485.409 1.115.409 1.892v7.065h-2.077v-1.455h-.085c-.204.397-.566.778-1.088 1.144-.522.365-1.236.548-2.141.548zm.462-1.663c.593 0 1.098-.113 1.515-.34a2.44 2.44 0 00.957-.89 2.26 2.26 0 00.331-1.182v-1.371c-.1.097-.318.183-.654.256-.337.074-.692.137-1.067.188l-.911.125c-.616.078-1.144.236-1.583.474-.439.238-.658.634-.658 1.188 0 .513.194.899.583 1.16.389.262.885.392 1.487.392zm9.887-12.759v14.187h-2.127v-14.187h2.127zm3.933 1.905a1.35 1.35 0 01-.95-.364 1.142 1.142 0 01-.395-.869c0-.342.132-.634.395-.876s.58-.364.95-.364c.365 0 .68.122.946.364s.398.534.398.876c0 .337-.133.627-.398.869a1.355 1.355 0 01-.946.364zm-1.074 12.281v-10.64h2.127v10.64h-2.127zm13.173-8.042l-1.928.332c-.123-.355-.352-.682-.687-.979-.334-.298-.833-.447-1.497-.447-.602 0-1.106.131-1.511.392-.406.261-.606.597-.601 1.008-.005.36.129.647.402.862.272.215.71.392 1.312.53l1.736.388c1.992.448 2.987 1.408 2.987 2.882 0 .642-.188 1.21-.565 1.704s-.901.882-1.572 1.163c-.671.282-1.447.423-2.329.423-1.229 0-2.227-.255-2.995-.766-.768-.51-1.243-1.236-1.423-2.179l2.056-.305c.256 1.053 1.039 1.579 2.348 1.579.697 0 1.254-.142 1.671-.426.417-.284.626-.631.626-1.042 0-.679-.515-1.13-1.543-1.352l-1.85-.395c-1.024-.222-1.778-.582-2.262-1.08-.484-.499-.726-1.125-.726-1.878 0-.628.18-1.179.541-1.651.36-.474.858-.842 1.494-1.105.635-.263 1.363-.395 2.184-.395 1.181 0 2.11.249 2.789.748a3.513 3.513 0 011.343 1.989zm7.647-2.597v1.662H99.59v5.854c0 .601.132.987.395 1.16s.567.26.914.26c.171 0 .32-.012.448-.034l.299-.056.384 1.711c-.124.046-.3.094-.53.142-.23.049-.513.075-.85.08a3.865 3.865 0 01-1.569-.291c-.486-.203-.877-.518-1.173-.942s-.445-.958-.445-1.6v-6.283h-1.6v-1.662h1.6v-2.55h2.127v2.55h2.241zm12.362 10.854c-1.072 0-1.997-.227-2.774-.679a4.57 4.57 0 01-1.796-1.908c-.419-.82-.629-1.779-.629-2.879 0-1.09.21-2.05.629-2.881a4.749 4.749 0 011.764-1.947c.756-.466 1.642-.699 2.657-.699.825 0 1.606.179 2.344.537.737.357 1.337.928 1.799 1.711.462.782.693 1.815.693 3.1v.734h-7.767c.028 1.025.325 1.814.889 2.369.564.554 1.302.831 2.212.831.607 0 1.131-.127 1.572-.381.441-.254.756-.633.946-1.137l2.013.354c-.242.864-.764 1.559-1.565 2.085-.802.526-1.797.79-2.987.79zm-3.074-6.463h5.676c-.005-.812-.256-1.486-.754-2.02s-1.159-.8-1.984-.8c-.574 0-1.075.131-1.504.392s-.768.604-1.017 1.032a3.086 3.086 0 00-.417 1.396zm12.256-7.938v14.187h-2.127v-14.187h2.127zm7.569 14.401c-1.072 0-1.997-.227-2.774-.679a4.57 4.57 0 01-1.796-1.908c-.419-.82-.629-1.779-.629-2.879 0-1.09.21-2.05.629-2.881a4.749 4.749 0 011.764-1.947c.756-.466 1.642-.699 2.657-.699.825 0 1.606.179 2.344.537.737.357 1.337.928 1.8 1.711.462.782.693 1.815.693 3.1v.734h-7.768c.028 1.025.325 1.814.889 2.369.564.554 1.302.831 2.212.831.607 0 1.131-.127 1.572-.381.441-.254.756-.633.946-1.137l2.013.354c-.241.864-.764 1.559-1.564 2.085-.803.526-1.798.79-2.988.79zm-3.074-6.463h5.676c-.005-.812-.256-1.486-.754-2.02s-1.159-.8-1.984-.8c-.574 0-1.075.131-1.504.392s-.768.604-1.017 1.032a3.086 3.086 0 00-.417 1.396zm19.419-4.391l-3.962 10.64h-2.276l-3.969-10.64h2.283l2.767 8.188h.114l2.76-8.188h2.283zm6.324 10.854c-1.072 0-1.997-.227-2.774-.679a4.576 4.576 0 01-1.796-1.908c-.42-.82-.63-1.779-.63-2.879 0-1.09.21-2.05.63-2.881a4.749 4.749 0 011.764-1.947c.757-.466 1.643-.699 2.657-.699.825 0 1.606.179 2.344.537.737.357 1.337.928 1.8 1.711.462.782.693 1.815.693 3.1v.734h-7.768c.028 1.025.325 1.814.889 2.369.564.554 1.302.831 2.213.831.606 0 1.131-.127 1.571-.381.441-.254.757-.633.946-1.137l2.013.354c-.241.864-.764 1.559-1.564 2.085-.803.526-1.798.79-2.988.79zm-3.074-6.463h5.677c-.005-.812-.257-1.486-.754-2.02-.498-.533-1.16-.8-1.985-.8-.573 0-1.075.131-1.504.392-.43.261-.769.604-1.018 1.032a3.085 3.085 0 00-.416 1.396zm12.256-.069v6.317h-2.127v-10.64h2.041v1.731h.136a3.049 3.049 0 011.185-1.357c.538-.342 1.217-.513 2.037-.513 1.119 0 2.02.339 2.699 1.019.681.679 1.021 1.676 1.021 2.992v6.768h-2.127v-6.519c0-.771-.206-1.375-.619-1.812-.412-.436-.979-.654-1.7-.654-.739 0-1.349.232-1.828.696-.479.465-.718 1.122-.718 1.972zm14.937-4.322v1.662h-2.24v5.854c0 .601.132.987.395 1.16.264.173.568.26.914.26.171 0 .32-.012.448-.034l.299-.056.384 1.711c-.123.046-.3.094-.529.142-.23.049-.514.075-.851.08-.56.009-1.082-.088-1.568-.291s-.877-.518-1.174-.942c-.296-.425-.444-.958-.444-1.6v-6.283h-1.601v-1.662h1.601v-2.55h2.127v2.55h2.239zm3.613 14.775c-.331 0-.623-.028-.874-.083a3.087 3.087 0 01-.548-.16l.512-1.718c.588.152 1.08.164 1.477.035.396-.13.727-.541.992-1.233l.312-.838-3.997-10.778h2.275l2.768 8.257h.113l2.768-8.257h2.283l-4.553 12.191c-.309.826-.753 1.464-1.334 1.912-.58.447-1.311.672-2.194.672zm23.572-12.178l-1.927.332c-.124-.355-.353-.682-.687-.979-.335-.298-.834-.447-1.497-.447-.603 0-1.106.131-1.512.392s-.606.597-.602 1.008c-.005.36.13.647.402.862s.71.392 1.312.53l1.735.388c1.991.448 2.987 1.408 2.987 2.882 0 .642-.188 1.21-.565 1.704s-.901.882-1.572 1.163c-.671.282-1.447.423-2.329.423-1.229 0-2.227-.255-2.995-.766-.768-.51-1.242-1.236-1.422-2.179l2.056-.305c.256 1.053 1.038 1.579 2.347 1.579.697 0 1.255-.142 1.672-.426s.626-.631.626-1.042c0-.679-.515-1.13-1.544-1.352l-1.849-.395c-1.024-.222-1.778-.582-2.263-1.08-.483-.499-.726-1.125-.726-1.878 0-.628.181-1.179.541-1.651.36-.474.858-.842 1.494-1.105.635-.263 1.363-.395 2.184-.395 1.181 0 2.109.249 2.788.748.68.5 1.128 1.162 1.346 1.989zm7.646-2.597v1.662h-2.24v5.854c0 .601.132.987.395 1.16.264.173.568.26.914.26.171 0 .32-.012.448-.034l.299-.056.384 1.711c-.123.046-.3.094-.529.142-.23.049-.514.075-.851.08-.56.009-1.082-.088-1.568-.291s-.877-.518-1.174-.942c-.296-.425-.444-.958-.444-1.6v-6.283h-1.601v-1.662h1.601v-2.55h2.127v2.55h2.239zm5.527 10.875c-.692 0-1.317-.125-1.874-.374-.558-.249-1-.615-1.327-1.098s-.49-1.072-.49-1.77c0-.605.119-1.102.358-1.49.24-.388.56-.694.961-.921.4-.227.85-.396 1.348-.509s1.005-.2 1.522-.26c.654-.074 1.184-.136 1.59-.184.405-.049.701-.128.889-.239.188-.11.281-.291.281-.54v-.049c0-.604-.175-1.073-.523-1.406-.349-.332-.866-.499-1.554-.499-.716 0-1.279.153-1.689.458s-.693.646-.85 1.024l-1.999-.443c.355-.97.949-1.664 1.781-2.085a5.973 5.973 0 012.729-.63c.436 0 .898.05 1.387.148.488.1.949.282 1.384.548.434.266.787.641 1.06 1.125.272.485.409 1.115.409 1.892v7.065h-2.077v-1.455h-.085c-.204.397-.567.778-1.089 1.144-.523.365-1.237.548-2.142.548zm.462-1.663c.593 0 1.098-.113 1.516-.34.417-.226.735-.522.956-.89s.331-.761.331-1.182v-1.371c-.1.097-.317.183-.654.256-.337.074-.692.137-1.067.188l-.91.125c-.616.078-1.144.236-1.583.474-.438.238-.657.634-.657 1.188 0 .513.194.899.583 1.16s.883.392 1.485.392zm7.761 1.427v-10.64h2.056v1.69h.114c.198-.573.551-1.024 1.056-1.354s1.078-.495 1.718-.495a8.625 8.625 0 01.904.048v1.981a4.179 4.179 0 00-.451-.08 4.947 4.947 0 00-.658-.045c-.754 0-1.378.226-1.871.676s-.739 1.024-.739 1.722v6.497h-2.129zm13.478-10.639v1.662h-2.24v5.854c0 .601.132.987.395 1.16.264.173.568.26.914.26.171 0 .32-.012.448-.034l.299-.056.384 1.711c-.123.046-.3.094-.529.142-.23.049-.514.075-.851.08-.56.009-1.082-.088-1.568-.291s-.877-.518-1.174-.942c-.296-.425-.444-.958-.444-1.6v-6.283h-1.601v-1.662h1.601v-2.55h2.127v2.55h2.239zm6.943 10.854c-1.072 0-1.997-.227-2.774-.679a4.576 4.576 0 01-1.796-1.908c-.42-.82-.63-1.779-.63-2.879 0-1.09.21-2.05.63-2.881a4.749 4.749 0 011.764-1.947c.757-.466 1.643-.699 2.657-.699.825 0 1.606.179 2.344.537.737.357 1.337.928 1.8 1.711.462.782.693 1.815.693 3.1v.734h-7.768c.028 1.025.325 1.814.889 2.369.564.554 1.302.831 2.213.831.606 0 1.131-.127 1.571-.381.441-.254.757-.633.946-1.137l2.013.354c-.241.864-.764 1.559-1.564 2.085-.803.526-1.798.79-2.988.79zm-3.074-6.463h5.677c-.005-.812-.257-1.486-.754-2.02-.498-.533-1.16-.8-1.985-.8-.573 0-1.075.131-1.504.392-.43.261-.769.604-1.018 1.032a3.085 3.085 0 00-.416 1.396zm10.129 6.248v-10.64h2.056v1.69h.114a2.591 2.591 0 011.052-1.354 3.068 3.068 0 011.722-.495c.299 0 .566.034.804.104s.446.164.626.284l-.683 1.731a1.924 1.924 0 00-.434-.152 2.506 2.506 0 00-.556-.056c-.734 0-1.348.226-1.838.676-.491.45-.736 1.021-.736 1.715v6.497h-2.127z"/></svg>